# xmcd
#
# Track frame offsets:
# 150
# 14077
# 41827
# 58552
# 76027
# 91252
# 115252
# 129502
# 155377
# 164677
# 191257
# 216830
# 231305
# 254477
#
# Disc length: 3622 seconds
#
#
# Revision: 0
# Processed by: cddbd v1.5.2PL0 Copyright (c) Steve Scherf et al.
# Submitted via: FreeRIP 2.90 
#
DISCID=bc0e240e
DTITLE=Peteco Carabajal - Borrando Fronteras
DYEAR=1900
DGENRE=Folklore
TTITLE0=Borrando Fronteras
TTITLE1=Artista Universal
TTITLE2=Movimientos Del Amor
TTITLE3=Viejas Promesas
TTITLE4=Luz De Amor
TTITLE5=Huella De Lluvia
TTITLE6=Yo Quiero Ser
TTITLE7=El Bailarín De Los Montes
TTITLE8=El Bailarín De Los Montes
TTITLE9=Danza De La Locura
TTITLE10=Jujuy
TTITLE11=Bienvenido Carnaval
TTITLE12=Cinema Paradiso
TTITLE13=Chacarera De Los Lagos
EXTD=
EXTT0=
EXTT1=
EXTT2=
EXTT3=
EXTT4=
EXTT5=
EXTT6=
EXTT7=
EXTT8=
EXTT9=
EXTT10=
EXTT11=
EXTT12=
EXTT13=
PLAYORDER=
